G04 #@! TF.GenerationSoftware,KiCad,Pcbnew,5.1.4-e60b266~84~ubuntu19.04.1*
G04 #@! TF.CreationDate,2019-10-25T13:04:57-07:00*
G04 #@! TF.ProjectId,ATSAMA5D27-1G,41545341-4d41-4354-9432-372d31472e6b,rev?*
G04 #@! TF.SameCoordinates,Original*
G04 #@! TF.FileFunction,Legend,Bot*
G04 #@! TF.FilePolarity,Positive*
%FSLAX46Y46*%
G04 Gerber Fmt 4.6, Leading zero omitted, Abs format (unit mm)*
G04 Created by KiCad (PCBNEW 5.1.4-e60b266~84~ubuntu19.04.1) date 2019-10-25 13:04:57*
%MOMM*%
%LPD*%
G04 APERTURE LIST*
%ADD10C,0.200000*%
%ADD11C,0.100000*%
%ADD12C,0.120000*%
G04 APERTURE END LIST*
D10*
X132512260Y-79812634D02*
X132464640Y-79717396D01*
X132464640Y-79574539D01*
X132512260Y-79431681D01*
X132607498Y-79336443D01*
X132702736Y-79288824D01*
X132893212Y-79241205D01*
X133036069Y-79241205D01*
X133226545Y-79288824D01*
X133321783Y-79336443D01*
X133417021Y-79431681D01*
X133464640Y-79574539D01*
X133464640Y-79669777D01*
X133417021Y-79812634D01*
X133369402Y-79860253D01*
X133036069Y-79860253D01*
X133036069Y-79669777D01*
X133464640Y-80288824D02*
X132797974Y-80288824D01*
X132464640Y-80288824D02*
X132512260Y-80241205D01*
X132559879Y-80288824D01*
X132512260Y-80336443D01*
X132464640Y-80288824D01*
X132559879Y-80288824D01*
X133464640Y-81193586D02*
X132940831Y-81193586D01*
X132845593Y-81145967D01*
X132797974Y-81050729D01*
X132797974Y-80860253D01*
X132845593Y-80765015D01*
X133417021Y-81193586D02*
X133464640Y-81098348D01*
X133464640Y-80860253D01*
X133417021Y-80765015D01*
X133321783Y-80717396D01*
X133226545Y-80717396D01*
X133131307Y-80765015D01*
X133083688Y-80860253D01*
X133083688Y-81098348D01*
X133036069Y-81193586D01*
X132797974Y-81669777D02*
X133464640Y-81669777D01*
X132893212Y-81669777D02*
X132845593Y-81717396D01*
X132797974Y-81812634D01*
X132797974Y-81955491D01*
X132845593Y-82050729D01*
X132940831Y-82098348D01*
X133464640Y-82098348D01*
X132797974Y-82431681D02*
X132797974Y-82812634D01*
X132464640Y-82574539D02*
X133321783Y-82574539D01*
X133417021Y-82622158D01*
X133464640Y-82717396D01*
X133464640Y-82812634D01*
X132940831Y-84241205D02*
X132988450Y-84384062D01*
X133036069Y-84431681D01*
X133131307Y-84479300D01*
X133274164Y-84479300D01*
X133369402Y-84431681D01*
X133417021Y-84384062D01*
X133464640Y-84288824D01*
X133464640Y-83907872D01*
X132464640Y-83907872D01*
X132464640Y-84241205D01*
X132512260Y-84336443D01*
X132559879Y-84384062D01*
X132655117Y-84431681D01*
X132750355Y-84431681D01*
X132845593Y-84384062D01*
X132893212Y-84336443D01*
X132940831Y-84241205D01*
X132940831Y-83907872D01*
X133464640Y-85050729D02*
X133417021Y-84955491D01*
X133369402Y-84907872D01*
X133274164Y-84860253D01*
X132988450Y-84860253D01*
X132893212Y-84907872D01*
X132845593Y-84955491D01*
X132797974Y-85050729D01*
X132797974Y-85193586D01*
X132845593Y-85288824D01*
X132893212Y-85336443D01*
X132988450Y-85384062D01*
X133274164Y-85384062D01*
X133369402Y-85336443D01*
X133417021Y-85288824D01*
X133464640Y-85193586D01*
X133464640Y-85050729D01*
X133464640Y-86241205D02*
X132940831Y-86241205D01*
X132845593Y-86193586D01*
X132797974Y-86098348D01*
X132797974Y-85907872D01*
X132845593Y-85812634D01*
X133417021Y-86241205D02*
X133464640Y-86145967D01*
X133464640Y-85907872D01*
X133417021Y-85812634D01*
X133321783Y-85765015D01*
X133226545Y-85765015D01*
X133131307Y-85812634D01*
X133083688Y-85907872D01*
X133083688Y-86145967D01*
X133036069Y-86241205D01*
X133464640Y-86717396D02*
X132797974Y-86717396D01*
X132988450Y-86717396D02*
X132893212Y-86765015D01*
X132845593Y-86812634D01*
X132797974Y-86907872D01*
X132797974Y-87003110D01*
X133464640Y-87765015D02*
X132464640Y-87765015D01*
X133417021Y-87765015D02*
X133464640Y-87669777D01*
X133464640Y-87479300D01*
X133417021Y-87384062D01*
X133369402Y-87336443D01*
X133274164Y-87288824D01*
X132988450Y-87288824D01*
X132893212Y-87336443D01*
X132845593Y-87384062D01*
X132797974Y-87479300D01*
X132797974Y-87669777D01*
X132845593Y-87765015D01*
X135153740Y-75293762D02*
X134153740Y-75293762D01*
X134153740Y-75531858D01*
X134201360Y-75674715D01*
X134296598Y-75769953D01*
X134391836Y-75817572D01*
X134582312Y-75865191D01*
X134725169Y-75865191D01*
X134915645Y-75817572D01*
X135010883Y-75769953D01*
X135106121Y-75674715D01*
X135153740Y-75531858D01*
X135153740Y-75293762D01*
X135106121Y-76674715D02*
X135153740Y-76579477D01*
X135153740Y-76389000D01*
X135106121Y-76293762D01*
X135010883Y-76246143D01*
X134629931Y-76246143D01*
X134534693Y-76293762D01*
X134487074Y-76389000D01*
X134487074Y-76579477D01*
X134534693Y-76674715D01*
X134629931Y-76722334D01*
X134725169Y-76722334D01*
X134820407Y-76246143D01*
X135106121Y-77103286D02*
X135153740Y-77198524D01*
X135153740Y-77389000D01*
X135106121Y-77484239D01*
X135010883Y-77531858D01*
X134963264Y-77531858D01*
X134868026Y-77484239D01*
X134820407Y-77389000D01*
X134820407Y-77246143D01*
X134772788Y-77150905D01*
X134677550Y-77103286D01*
X134629931Y-77103286D01*
X134534693Y-77150905D01*
X134487074Y-77246143D01*
X134487074Y-77389000D01*
X134534693Y-77484239D01*
X135153740Y-77960429D02*
X134487074Y-77960429D01*
X134153740Y-77960429D02*
X134201360Y-77912810D01*
X134248979Y-77960429D01*
X134201360Y-78008048D01*
X134153740Y-77960429D01*
X134248979Y-77960429D01*
X134487074Y-78865191D02*
X135296598Y-78865191D01*
X135391836Y-78817572D01*
X135439455Y-78769953D01*
X135487074Y-78674715D01*
X135487074Y-78531858D01*
X135439455Y-78436620D01*
X135106121Y-78865191D02*
X135153740Y-78769953D01*
X135153740Y-78579477D01*
X135106121Y-78484239D01*
X135058502Y-78436620D01*
X134963264Y-78389000D01*
X134677550Y-78389000D01*
X134582312Y-78436620D01*
X134534693Y-78484239D01*
X134487074Y-78579477D01*
X134487074Y-78769953D01*
X134534693Y-78865191D01*
X134487074Y-79341381D02*
X135153740Y-79341381D01*
X134582312Y-79341381D02*
X134534693Y-79389000D01*
X134487074Y-79484239D01*
X134487074Y-79627096D01*
X134534693Y-79722334D01*
X134629931Y-79769953D01*
X135153740Y-79769953D01*
X135106121Y-80627096D02*
X135153740Y-80531858D01*
X135153740Y-80341381D01*
X135106121Y-80246143D01*
X135010883Y-80198524D01*
X134629931Y-80198524D01*
X134534693Y-80246143D01*
X134487074Y-80341381D01*
X134487074Y-80531858D01*
X134534693Y-80627096D01*
X134629931Y-80674715D01*
X134725169Y-80674715D01*
X134820407Y-80198524D01*
X135153740Y-81531858D02*
X134153740Y-81531858D01*
X135106121Y-81531858D02*
X135153740Y-81436620D01*
X135153740Y-81246143D01*
X135106121Y-81150905D01*
X135058502Y-81103286D01*
X134963264Y-81055667D01*
X134677550Y-81055667D01*
X134582312Y-81103286D01*
X134534693Y-81150905D01*
X134487074Y-81246143D01*
X134487074Y-81436620D01*
X134534693Y-81531858D01*
X134629931Y-83103286D02*
X134677550Y-83246143D01*
X134725169Y-83293762D01*
X134820407Y-83341381D01*
X134963264Y-83341381D01*
X135058502Y-83293762D01*
X135106121Y-83246143D01*
X135153740Y-83150905D01*
X135153740Y-82769953D01*
X134153740Y-82769953D01*
X134153740Y-83103286D01*
X134201360Y-83198524D01*
X134248979Y-83246143D01*
X134344217Y-83293762D01*
X134439455Y-83293762D01*
X134534693Y-83246143D01*
X134582312Y-83198524D01*
X134629931Y-83103286D01*
X134629931Y-82769953D01*
X134487074Y-83674715D02*
X135153740Y-83912810D01*
X134487074Y-84150905D02*
X135153740Y-83912810D01*
X135391836Y-83817572D01*
X135439455Y-83769953D01*
X135487074Y-83674715D01*
X134201360Y-85817572D02*
X134153740Y-85722334D01*
X134153740Y-85579477D01*
X134201360Y-85436620D01*
X134296598Y-85341381D01*
X134391836Y-85293762D01*
X134582312Y-85246143D01*
X134725169Y-85246143D01*
X134915645Y-85293762D01*
X135010883Y-85341381D01*
X135106121Y-85436620D01*
X135153740Y-85579477D01*
X135153740Y-85674715D01*
X135106121Y-85817572D01*
X135058502Y-85865191D01*
X134725169Y-85865191D01*
X134725169Y-85674715D01*
X135153740Y-86293762D02*
X134487074Y-86293762D01*
X134677550Y-86293762D02*
X134582312Y-86341381D01*
X134534693Y-86389000D01*
X134487074Y-86484239D01*
X134487074Y-86579477D01*
X135153740Y-87055667D02*
X135106121Y-86960429D01*
X135058502Y-86912810D01*
X134963264Y-86865191D01*
X134677550Y-86865191D01*
X134582312Y-86912810D01*
X134534693Y-86960429D01*
X134487074Y-87055667D01*
X134487074Y-87198524D01*
X134534693Y-87293762D01*
X134582312Y-87341381D01*
X134677550Y-87389000D01*
X134963264Y-87389000D01*
X135058502Y-87341381D01*
X135106121Y-87293762D01*
X135153740Y-87198524D01*
X135153740Y-87055667D01*
X134487074Y-88246143D02*
X135296598Y-88246143D01*
X135391836Y-88198524D01*
X135439455Y-88150905D01*
X135487074Y-88055667D01*
X135487074Y-87912810D01*
X135439455Y-87817572D01*
X135106121Y-88246143D02*
X135153740Y-88150905D01*
X135153740Y-87960429D01*
X135106121Y-87865191D01*
X135058502Y-87817572D01*
X134963264Y-87769953D01*
X134677550Y-87769953D01*
X134582312Y-87817572D01*
X134534693Y-87865191D01*
X134487074Y-87960429D01*
X134487074Y-88150905D01*
X134534693Y-88246143D01*
X134487074Y-89150905D02*
X135153740Y-89150905D01*
X134487074Y-88722334D02*
X135010883Y-88722334D01*
X135106121Y-88769953D01*
X135153740Y-88865191D01*
X135153740Y-89008048D01*
X135106121Y-89103286D01*
X135058502Y-89150905D01*
X135153740Y-90055667D02*
X134629931Y-90055667D01*
X134534693Y-90008048D01*
X134487074Y-89912810D01*
X134487074Y-89722334D01*
X134534693Y-89627096D01*
X135106121Y-90055667D02*
X135153740Y-89960429D01*
X135153740Y-89722334D01*
X135106121Y-89627096D01*
X135010883Y-89579477D01*
X134915645Y-89579477D01*
X134820407Y-89627096D01*
X134772788Y-89722334D01*
X134772788Y-89960429D01*
X134725169Y-90055667D01*
X135153740Y-90531858D02*
X134487074Y-90531858D01*
X134677550Y-90531858D02*
X134582312Y-90579477D01*
X134534693Y-90627096D01*
X134487074Y-90722334D01*
X134487074Y-90817572D01*
X135153740Y-91579477D02*
X134153740Y-91579477D01*
X135106121Y-91579477D02*
X135153740Y-91484239D01*
X135153740Y-91293762D01*
X135106121Y-91198524D01*
X135058502Y-91150905D01*
X134963264Y-91103286D01*
X134677550Y-91103286D01*
X134582312Y-91150905D01*
X134534693Y-91198524D01*
X134487074Y-91293762D01*
X134487074Y-91484239D01*
X134534693Y-91579477D01*
X135903160Y-79262096D02*
X135855540Y-79166858D01*
X135855540Y-79024000D01*
X135903160Y-78881143D01*
X135998398Y-78785905D01*
X136093636Y-78738286D01*
X136284112Y-78690667D01*
X136426969Y-78690667D01*
X136617445Y-78738286D01*
X136712683Y-78785905D01*
X136807921Y-78881143D01*
X136855540Y-79024000D01*
X136855540Y-79119239D01*
X136807921Y-79262096D01*
X136760302Y-79309715D01*
X136426969Y-79309715D01*
X136426969Y-79119239D01*
X136855540Y-79738286D02*
X136188874Y-79738286D01*
X136379350Y-79738286D02*
X136284112Y-79785905D01*
X136236493Y-79833524D01*
X136188874Y-79928762D01*
X136188874Y-80024000D01*
X136855540Y-80500191D02*
X136807921Y-80404953D01*
X136760302Y-80357334D01*
X136665064Y-80309715D01*
X136379350Y-80309715D01*
X136284112Y-80357334D01*
X136236493Y-80404953D01*
X136188874Y-80500191D01*
X136188874Y-80643048D01*
X136236493Y-80738286D01*
X136284112Y-80785905D01*
X136379350Y-80833524D01*
X136665064Y-80833524D01*
X136760302Y-80785905D01*
X136807921Y-80738286D01*
X136855540Y-80643048D01*
X136855540Y-80500191D01*
X136855540Y-81262096D02*
X135855540Y-81262096D01*
X136236493Y-81262096D02*
X136188874Y-81357334D01*
X136188874Y-81547810D01*
X136236493Y-81643048D01*
X136284112Y-81690667D01*
X136379350Y-81738286D01*
X136665064Y-81738286D01*
X136760302Y-81690667D01*
X136807921Y-81643048D01*
X136855540Y-81547810D01*
X136855540Y-81357334D01*
X136807921Y-81262096D01*
X136855540Y-82309715D02*
X136807921Y-82214477D01*
X136760302Y-82166858D01*
X136665064Y-82119239D01*
X136379350Y-82119239D01*
X136284112Y-82166858D01*
X136236493Y-82214477D01*
X136188874Y-82309715D01*
X136188874Y-82452572D01*
X136236493Y-82547810D01*
X136284112Y-82595429D01*
X136379350Y-82643048D01*
X136665064Y-82643048D01*
X136760302Y-82595429D01*
X136807921Y-82547810D01*
X136855540Y-82452572D01*
X136855540Y-82309715D01*
X136855540Y-83500191D02*
X136331731Y-83500191D01*
X136236493Y-83452572D01*
X136188874Y-83357334D01*
X136188874Y-83166858D01*
X136236493Y-83071620D01*
X136807921Y-83500191D02*
X136855540Y-83404953D01*
X136855540Y-83166858D01*
X136807921Y-83071620D01*
X136712683Y-83024000D01*
X136617445Y-83024000D01*
X136522207Y-83071620D01*
X136474588Y-83166858D01*
X136474588Y-83404953D01*
X136426969Y-83500191D01*
X136855540Y-83976381D02*
X136188874Y-83976381D01*
X136379350Y-83976381D02*
X136284112Y-84024000D01*
X136236493Y-84071620D01*
X136188874Y-84166858D01*
X136188874Y-84262096D01*
X136855540Y-85024000D02*
X135855540Y-85024000D01*
X136807921Y-85024000D02*
X136855540Y-84928762D01*
X136855540Y-84738286D01*
X136807921Y-84643048D01*
X136760302Y-84595429D01*
X136665064Y-84547810D01*
X136379350Y-84547810D01*
X136284112Y-84595429D01*
X136236493Y-84643048D01*
X136188874Y-84738286D01*
X136188874Y-84928762D01*
X136236493Y-85024000D01*
X136807921Y-85452572D02*
X136855540Y-85547810D01*
X136855540Y-85738286D01*
X136807921Y-85833524D01*
X136712683Y-85881143D01*
X136665064Y-85881143D01*
X136569826Y-85833524D01*
X136522207Y-85738286D01*
X136522207Y-85595429D01*
X136474588Y-85500191D01*
X136379350Y-85452572D01*
X136331731Y-85452572D01*
X136236493Y-85500191D01*
X136188874Y-85595429D01*
X136188874Y-85738286D01*
X136236493Y-85833524D01*
X136760302Y-86309715D02*
X136807921Y-86357334D01*
X136855540Y-86309715D01*
X136807921Y-86262096D01*
X136760302Y-86309715D01*
X136855540Y-86309715D01*
X136807921Y-87214477D02*
X136855540Y-87119239D01*
X136855540Y-86928762D01*
X136807921Y-86833524D01*
X136760302Y-86785905D01*
X136665064Y-86738286D01*
X136379350Y-86738286D01*
X136284112Y-86785905D01*
X136236493Y-86833524D01*
X136188874Y-86928762D01*
X136188874Y-87119239D01*
X136236493Y-87214477D01*
X136855540Y-87785905D02*
X136807921Y-87690667D01*
X136760302Y-87643048D01*
X136665064Y-87595429D01*
X136379350Y-87595429D01*
X136284112Y-87643048D01*
X136236493Y-87690667D01*
X136188874Y-87785905D01*
X136188874Y-87928762D01*
X136236493Y-88024000D01*
X136284112Y-88071620D01*
X136379350Y-88119239D01*
X136665064Y-88119239D01*
X136760302Y-88071620D01*
X136807921Y-88024000D01*
X136855540Y-87928762D01*
X136855540Y-87785905D01*
X136855540Y-88547810D02*
X136188874Y-88547810D01*
X136284112Y-88547810D02*
X136236493Y-88595429D01*
X136188874Y-88690667D01*
X136188874Y-88833524D01*
X136236493Y-88928762D01*
X136331731Y-88976381D01*
X136855540Y-88976381D01*
X136331731Y-88976381D02*
X136236493Y-89024000D01*
X136188874Y-89119239D01*
X136188874Y-89262096D01*
X136236493Y-89357334D01*
X136331731Y-89404953D01*
X136855540Y-89404953D01*
D11*
X131237260Y-120766620D02*
G75*
G02X131137260Y-120766620I-50000J0D01*
G01*
X131137260Y-120766620D02*
G75*
G02X131237260Y-120766620I50000J0D01*
G01*
X131137260Y-120766620D02*
X131137260Y-120766620D01*
X131237260Y-120766620D02*
X131237260Y-120766620D01*
X129387260Y-120266620D02*
X129387260Y-118166620D01*
X130537260Y-120266620D02*
X129387260Y-120266620D01*
X140687260Y-120266620D02*
X139537260Y-120266620D01*
X140687260Y-118666620D02*
X140687260Y-120266620D01*
X129387260Y-112666620D02*
X131037260Y-112666620D01*
X140687260Y-112666620D02*
X140687260Y-113166620D01*
X139037260Y-112666620D02*
X140687260Y-112666620D01*
D12*
X141529700Y-91834451D02*
X141529700Y-92834451D01*
X142889700Y-92834451D02*
X142889700Y-91834451D01*
X141070960Y-92889420D02*
X141070960Y-91889420D01*
X139710960Y-91889420D02*
X139710960Y-92889420D01*
X141069860Y-100030820D02*
X141069860Y-101030820D01*
X142429860Y-101030820D02*
X142429860Y-100030820D01*
X126336180Y-75216380D02*
X125006180Y-75216380D01*
X126336180Y-76546380D02*
X126336180Y-75216380D01*
X126336180Y-77816380D02*
X123676180Y-77816380D01*
X123676180Y-77816380D02*
X123676180Y-115976380D01*
X126336180Y-77816380D02*
X126336180Y-115976380D01*
X126336180Y-115976380D02*
X123676180Y-115976380D01*
X146572360Y-115978140D02*
X143912360Y-115978140D01*
X146572360Y-87978140D02*
X146572360Y-115978140D01*
X143912360Y-87978140D02*
X143912360Y-115978140D01*
X146572360Y-87978140D02*
X143912360Y-87978140D01*
X146572360Y-86708140D02*
X146572360Y-85378140D01*
X146572360Y-85378140D02*
X145242360Y-85378140D01*
X142775060Y-74969220D02*
X141445060Y-74969220D01*
X142775060Y-76299220D02*
X142775060Y-74969220D01*
X140175060Y-74969220D02*
X137575060Y-74969220D01*
X140175060Y-77569220D02*
X140175060Y-74969220D01*
X142775060Y-77569220D02*
X140175060Y-77569220D01*
X137575060Y-74969220D02*
X137575060Y-77629220D01*
X142775060Y-77569220D02*
X142775060Y-77629220D01*
X142775060Y-77629220D02*
X137575060Y-77629220D01*
D10*
X141592260Y-76410020D02*
X141592260Y-78310020D01*
X141592260Y-82010020D02*
X141592260Y-83910020D01*
X141592260Y-83910020D02*
X143142260Y-83910020D01*
X145692260Y-83910020D02*
X146592260Y-83910020D01*
X146592260Y-83910020D02*
X146592260Y-76410020D01*
X146592260Y-76410020D02*
X145692260Y-76410020D01*
X143142260Y-76410020D02*
X141592260Y-76410020D01*
X146742260Y-76410020D02*
G75*
G03X147142260Y-76060020I25000J375000D01*
G01*
X147042260Y-84260020D02*
G75*
G03X146642260Y-83910020I-375000J-25000D01*
G01*
X146642260Y-76860020D02*
X147192260Y-76860020D01*
X147192260Y-76860020D02*
X147192260Y-83460020D01*
X147192260Y-83460020D02*
X146642260Y-83460020D01*
D11*
X141122540Y-78260020D02*
G75*
G03X141122540Y-78260020I-180280J0D01*
G01*
D12*
X130515560Y-79793020D02*
X129585560Y-79793020D01*
X127355560Y-79793020D02*
X128285560Y-79793020D01*
X127355560Y-79793020D02*
X127355560Y-77633020D01*
X130515560Y-79793020D02*
X130515560Y-78333020D01*
X130502860Y-83133120D02*
X130502860Y-81673120D01*
X127342860Y-83133120D02*
X127342860Y-80973120D01*
X127342860Y-83133120D02*
X128272860Y-83133120D01*
X130502860Y-83133120D02*
X129572860Y-83133120D01*
M02*
