M48
; DRILL file {KiCad 5.1.4-e60b266~84~ubuntu19.04.1} date Fri 25 Oct 2019 01:05:22 PM MST
; FORMAT={-:-/ absolute / inch / decimal}
; #@! TF.CreationDate,2019-10-25T13:05:22-07:00
; #@! TF.GenerationSoftware,Kicad,Pcbnew,5.1.4-e60b266~84~ubuntu19.04.1
FMAT,2
INCH
T1C0.0100
T2C0.0335
T3C0.0394
T4C0.0512
T5C0.1063
T6C0.1063
%
G90
G05
T1
X4.971Y-3.0727
X4.972Y-3.7499
X4.9817Y-3.6679
X5.0093Y-3.7023
X5.0105Y-3.5907
X5.0117Y-3.5679
X5.018Y-3.3323
X5.0192Y-3.7899
X5.0267Y-3.9454
X5.0272Y-3.4944
X5.0275Y-3.3769
X5.0275Y-3.4138
X5.0275Y-3.4506
X5.0312Y-3.9974
X5.0373Y-3.267
X5.0423Y-3.9025
X5.0467Y-2.9915
X5.0512Y-4.0429
X5.0512Y-4.1049
X5.0515Y-3.7954
X5.0517Y-3.1199
X5.0517Y-4.1684
X5.0523Y-3.3371
X5.0525Y-3.9494
X5.0526Y-4.0114
X5.0779Y-4.3337
X5.0787Y-3.5197
X5.0787Y-4.3677
X5.0821Y-4.0114
X5.0832Y-4.2954
X5.0837Y-4.1059
X5.0837Y-4.2006
X5.0837Y-4.2319
X5.0837Y-3.9484
X5.0839Y-4.1691
X5.0841Y-4.043
X5.0842Y-4.2634
X5.0867Y-3.1197
X5.0869Y-2.9891
X5.0887Y-3.4345
X5.0942Y-3.6914
X5.1147Y-4.0434
X5.1147Y-4.1379
X5.1147Y-4.2629
X5.1152Y-4.0744
X5.1152Y-4.1059
X5.1152Y-4.2314
X5.1155Y-3.9803
X5.1157Y-4.0118
X5.1157Y-4.2954
X5.1162Y-4.3289
X5.1165Y-3.2603
X5.1167Y-3.1199
X5.1169Y-4.3685
X5.1267Y-2.8759
X5.1269Y-2.9495
X5.1301Y-2.9891
X5.1402Y-3.147
X5.1434Y-3.5547
X5.1461Y-3.98
X5.1461Y-4.0115
X5.1462Y-4.2314
X5.1467Y-4.0424
X5.1467Y-4.1054
X5.1467Y-4.1374
X5.1467Y-4.1684
X5.1467Y-4.2006
X5.1469Y-3.9157
X5.1469Y-4.2639
X5.1472Y-4.0744
X5.1475Y-3.2989
X5.1475Y-3.6001
X5.1482Y-4.2949
X5.1519Y-3.5779
X5.1638Y-4.6452
X5.1647Y-4.5739
X5.171Y-3.3912
X5.171Y-3.4621
X5.1737Y-3.6679
X5.1737Y-3.6929
X5.1746Y-4.3337
X5.1746Y-4.3679
X5.1747Y-3.6419
X5.177Y-4.1994
X5.1782Y-3.9485
X5.1782Y-4.0115
X5.1782Y-4.0744
X5.1784Y-3.8548
X5.1785Y-3.9163
X5.1785Y-3.7896
X5.1961Y-3.6319
X5.2054Y-2.9916
X5.2063Y-4.6471
X5.2067Y-4.5739
X5.2073Y-3.5597
X5.2097Y-4.1059
X5.21Y-3.9485
X5.2101Y-4.1689
X5.2103Y-3.9165
X5.2103Y-4.2629
X5.2106Y-3.98
X5.2217Y-3.1349
X5.2267Y-4.3963
X5.2317Y-3.2423
X5.2317Y-3.2674
X5.2405Y-3.9802
X5.2407Y-4.1694
X5.2407Y-3.9169
X5.2407Y-3.6816
X5.2409Y-4.0747
X5.241Y-4.1369
X5.241Y-3.9485
X5.2412Y-4.0428
X5.2416Y-3.7193
X5.2419Y-3.3912
X5.2419Y-3.4621
X5.2484Y-2.9932
X5.2492Y-3.1349
X5.2492Y-2.9674
X5.2494Y-4.6461
X5.2497Y-3.5919
X5.2497Y-4.5739
X5.2667Y-3.6646
X5.2721Y-4.669
X5.2722Y-4.1999
X5.2725Y-3.9489
X5.2725Y-4.0116
X5.2727Y-4.1059
X5.2727Y-4.0739
X5.2733Y-3.9171
X5.2735Y-4.1374
X5.2745Y-4.1704
X5.2769Y-2.9653
X5.2792Y-3.1349
X5.2796Y-3.784
X5.2827Y-3.3079
X5.2882Y-2.9932
X5.289Y-4.3328
X5.2897Y-3.6667
X5.2897Y-3.7639
X5.2927Y-4.5919
X5.2937Y-4.6929
X5.2947Y-3.6359
X5.3023Y-3.5172
X5.3037Y-4.0419
X5.3043Y-4.2313
X5.3045Y-4.0117
X5.3107Y-3.5489
X5.3151Y-4.5291
X5.3151Y-3.786
X5.3153Y-4.6467
X5.3163Y-3.2264
X5.3189Y-3.7015
X5.3197Y-2.9659
X5.3265Y-3.5329
X5.3278Y-4.38
X5.3323Y-3.6147
X5.3352Y-4.1689
X5.3352Y-4.2004
X5.3353Y-4.0115
X5.3357Y-4.0429
X5.3357Y-4.0744
X5.3357Y-4.2315
X5.3359Y-3.8849
X5.336Y-3.9158
X5.3437Y-3.5159
X5.3452Y-2.9674
X5.3457Y-3.5959
X5.3524Y-3.6628
X5.3608Y-4.6473
X5.366Y-3.8534
X5.3661Y-4.2305
X5.3669Y-4.1069
X5.3672Y-4.1369
X5.3672Y-4.2004
X5.3689Y-4.0153
X5.3765Y-4.6917
X5.3787Y-4.5909
X5.3811Y-3.7538
X5.3982Y-4.0429
X5.3984Y-3.9478
X5.3986Y-4.2631
X5.3987Y-3.8862
X5.3987Y-4.2312
X5.3988Y-3.9163
X5.4033Y-3.3311
X5.4067Y-3.0667
X5.407Y-3.4347
X5.4087Y-3.3663
X5.4107Y-3.4649
X5.4187Y-3.0899
X5.4209Y-3.7589
X5.4214Y-3.6609
X5.4232Y-4.3844
X5.4245Y-3.3421
X5.4267Y-3.3149
X5.4293Y-4.0089
X5.4304Y-3.948
X5.4307Y-3.9164
X5.4307Y-3.8537
X5.431Y-4.2627
X5.431Y-3.8861
X5.4312Y-4.0404
X5.4312Y-4.3584
X5.4442Y-3.0921
X5.4451Y-3.4375
X5.4477Y-3.3889
X5.457Y-3.6359
X5.4613Y-4.0749
X5.4615Y-3.8856
X5.4615Y-4.5267
X5.4617Y-4.011
X5.4626Y-3.8213
X5.4687Y-4.4604
X5.4722Y-3.7184
X5.4837Y-3.3935
X5.4859Y-4.6545
X5.4883Y-2.9275
X5.4902Y-3.977
X5.4912Y-3.6649
X5.4926Y-4.0104
X5.4927Y-4.2004
X5.4929Y-3.8547
X5.4931Y-4.2618
X5.4931Y-4.0427
X5.4932Y-3.8224
X5.4942Y-3.7894
X5.5025Y-3.1234
X5.5183Y-2.9485
X5.5207Y-3.2509
X5.5227Y-3.1242
X5.5239Y-4.0421
X5.5254Y-3.9162
X5.5358Y-3.1024
X5.5487Y-3.2499
X5.5537Y-3.5229
X5.5554Y-4.1996
X5.5562Y-4.1689
X5.5563Y-4.2639
X5.5565Y-4.0745
X5.5565Y-4.0419
X5.5567Y-4.2949
X5.5591Y-3.7555
X5.5617Y-3.6061
X5.5647Y-4.3795
X5.5663Y-3.6399
X5.5892Y-3.9639
X5.5897Y-4.1991
X5.5907Y-3.4384
X5.5909Y-3.8341
X5.5926Y-3.874
X5.5927Y-3.9004
X5.5957Y-3.5289
X5.6039Y-4.3793
X5.6057Y-3.2729
X5.6082Y-4.5249
X5.6129Y-3.9919
X5.6187Y-3.2229
X5.6187Y-3.1949
X5.6227Y-4.151
X5.623Y-4.2007
X5.6277Y-3.1099
X5.6307Y-3.3989
X5.6363Y-3.6997
X5.6363Y-3.7357
X5.6407Y-4.3263
X5.6417Y-3.5953
X5.6427Y-3.9959
X5.6459Y-4.1073
X5.646Y-4.0364
X5.646Y-4.0709
X5.6477Y-3.9649
X5.649Y-3.923
X5.6497Y-3.4539
X5.65Y-3.8133
X5.6773Y-4.2825
X5.6794Y-3.8585
X5.6927Y-3.9579
T2
X5.2214Y-2.9262
X5.4183Y-2.9262
T3
X5.4687Y-3.0039
X5.5687Y-3.0039
X5.7182Y-3.4137
X5.7182Y-3.5137
X5.7182Y-3.6137
X5.7182Y-3.7137
X5.7182Y-3.8137
X5.7182Y-3.9137
X5.7182Y-4.0137
X5.7182Y-4.1137
X5.7182Y-4.2137
X5.7182Y-4.3137
X5.7182Y-4.4137
X5.7182Y-4.5137
X4.9215Y-3.0136
X4.9215Y-3.1136
X4.9215Y-3.2136
X4.9215Y-3.3136
X4.9215Y-3.4136
X4.9215Y-3.5136
X4.9215Y-3.6136
X4.9215Y-3.7136
X4.9215Y-3.8136
X4.9215Y-3.9136
X4.9215Y-4.0136
X4.9215Y-4.1136
X4.9215Y-4.2136
X4.9215Y-4.3136
X4.9215Y-4.4136
X4.9215Y-4.5136
T4
X5.1821Y-2.8199
X5.4577Y-2.8199
T5
X5.67Y-2.8642
X4.97Y-2.8642
T6
X4.97Y-4.6642
X5.67Y-4.6642
T0
M30
